#!OML:ASF F:\VICON\USERDATA\INSTALL\rory3\rory3.ASF
:FULLY-SPECIFIED
:DEGREES
248
root -3.0655 18.1123 1.20815 1.46125 -42.9211 -4.52346
lowerback 12.6521 1.78606 3.67322
upperback 1.4375 2.99826 2.79422
thorax -5.54287 1.39978 0.354472
lowerneck -15.2668 -5.12524 -11.5187
upperneck 36.6956 -7.06017 6.38576
head 16.4114 -3.86916 3.47719
rclavicle -1.10325e-014 1.43125e-014
rhumerus -36.4462 -13.5577 -74.8681
rradius 31.2528
rwrist 4.48882
rhand -13.7132 8.10884
rfingers 7.12502
rthumb 12.4056 -21.503
lclavicle -1.10325e-014 1.43125e-014
lhumerus -38.2369 7.40699 84.8638
lradius 30.3222
lwrist -7.48486
lhand -16.1914 26.7882
lfingers 7.12502
lthumb 10.0155 56.5299
rfemur -4.98268 -5.39804 28.1494
rtibia 19.4119
rfoot -10.3633 -1.51501
rtoes 14.5026
lfemur -14.2304 -0.389421 -13.6437
ltibia 58.4836
lfoot 2.31392 -10.2484
ltoes -19.2455
249
root -3.13652 18.0924 1.27283 1.55043 -42.9942 -4.69008
lowerback 12.7553 1.86102 3.79347
upperback 1.40991 3.12272 2.8208
thorax -5.62242 1.45644 0.290103
lowerneck -15.1535 -5.12547 -11.5628
upperneck 36.7717 -7.09897 6.46126
head 16.4346 -3.88614 3.51551
rclavicle -4.95968e-014 -2.38542e-015
rhumerus -36.2794 -13.4209 -74.7869
rradius 31.5811
rwrist 3.94386
rhand -13.8946 8.15767
rfingers 7.12502
rthumb 12.2307 -21.4647
lclavicle -4.95968e-014 -2.38542e-015
lhumerus -38.3578 7.30623 84.9759
lradius 30.7524
lwrist -6.79802
lhand -15.9297 26.8669
lfingers 7.12502
lthumb 10.268 56.5963
rfemur -4.86483 -5.25696 28.3126
rtibia 19.9222
rfoot -10.7957 -1.70778
rtoes 14.1497
lfemur -15.0992 -0.0681929 -13.5087
ltibia 58.2708
lfoot 0.994947 -9.48516
ltoes -20.8677
250
root -3.20796 18.0736 1.34017 1.61273 -42.9856 -4.81197
lowerback 12.7832 1.89078 3.96792
upperback 1.44872 3.18302 2.78211
thorax -5.58386 1.48227 0.141401
lowerneck -15.1856 -5.12585 -11.385
upperneck 36.7849 -7.10113 6.3314
head 16.4326 -3.87787 3.42553
rclavicle -3.15074e-014 2.22639e-014
rhumerus -35.92 -13.7061 -74.7106
rradius 31.7609
rwrist 3.76257
rhand -14.0276 8.41847
rfingers 7.12502
rthumb 12.1025 -21.2115
lclavicle -3.15074e-014 2.22639e-014
lhumerus -38.3529 7.02777 85.1213
lradius 31.1502
lwrist -5.84064
lhand -16.3069 26.7934
lfingers 7.12502
lthumb 9.90404 56.5404
rfemur -4.65119 -5.34084 28.4291
rtibia 20.1848
rfoot -11.1377 -1.73669
rtoes 13.471
lfemur -15.9113 0.184207 -13.4483
ltibia 57.8946
lfoot -0.376547 -8.53389
ltoes -23.6422
251
root -3.28221 18.0661 1.40878 1.64797 -42.9681 -4.9147
lowerback 12.8194 1.9511 4.07979
upperback 1.47843 3.27833 2.78032
thorax -5.56388 1.52674 0.0600911
lowerneck -15.1265 -5.14949 -11.3671
upperneck 36.8113 -7.15632 6.34237
head 16.4386 -3.89797 3.41854
rclavicle -3.03147e-014 -2.46493e-014
rhumerus -35.6154 -13.8901 -74.6136
rradius 32.0236
rwrist 3.4725
rhand -14.321 8.38595
rfingers 7.12502
rthumb 11.8195 -21.2605
lclavicle -3.03147e-014 -2.46493e-014
lhumerus -38.272 6.61368 85.4141
lradius 31.4144
lwrist -4.66604
lhand -17.4387 27.0349
lfingers 7.12502
lthumb 8.81206 56.831
rfemur -4.27087 -5.30146 28.5224
rtibia 20.2531
rfoot -11.5213 -1.84836
rtoes 13.3494
lfemur -16.6814 0.198238 -13.3412
ltibia 57.3656
lfoot -0.785831 -7.39477
ltoes -20.4166
252
root -3.35836 18.0733 1.47882 1.72413 -43.0095 -5.11089
lowerback 12.8487 2.05385 4.24817
upperback 1.57095 3.43475 2.81498
thorax -5.47055 1.60182 -0.0232197
lowerneck -15.2213 -5.22476 -11.4531
upperneck 36.855 -7.25653 6.40874
head 16.5076 -3.93981 3.44427
rclavicle -4.67144e-014 2.06736e-014
rhumerus -35.2348 -13.8244 -74.5654
rradius 32.3628
rwrist 3.01301
rhand -14.4752 8.33761
rfingers 7.12502
rthumb 11.6709 -21.3173
lclavicle -4.67144e-014 2.06736e-014
lhumerus -38.0912 6.40316 85.6441
lradius 31.7121
lwrist -4.11407
lhand -18.1078 26.7975
lfingers 7.12502
lthumb 8.16629 56.6197
rfemur -3.81489 -5.25217 28.6684
rtibia 20.2591
rfoot -11.7471 -1.86026
rtoes 12.7917
lfemur -17.4371 0.121928 -13.1012
ltibia 56.7061
lfoot -0.884045 -6.33715
ltoes -13.0046
253
root -3.4306 18.0673 1.54883 1.74367 -42.9961 -5.28574
lowerback 12.9682 2.09983 4.43947
upperback 1.6321 3.52457 2.80628
thorax -5.45739 1.64163 -0.157709
lowerneck -15.2782 -5.27557 -11.4022
upperneck 36.9119 -7.3313 6.36987
head 16.5567 -3.96769 3.40415
rclavicle -1.41137e-014 1.11319e-014
rhumerus -34.9289 -13.9425 -74.479
rradius 32.6442
rwrist 2.85765
rhand -14.3869 8.44059
rfingers 7.12502
rthumb 11.756 -21.2095
lclavicle -1.41137e-014 1.11319e-014
lhumerus -38.0481 6.24833 85.7389
lradius 32.1443
lwrist -3.8701
lhand -18.0136 26.702
lfingers 7.12502
lthumb 8.25725 56.5207
rfemur -3.334 -5.32664 28.8018
rtibia 20.2489
rfoot -11.8853 -1.88608
rtoes 10.6209
lfemur -18.0752 0.110586 -12.9496
ltibia 55.9065
lfoot -1.68793 -5.30538
ltoes -10.7467
